<svg width="304" height="16" viewBox="0 0 304 16" fill="none" xmlns="http://www.w3.org/2000/svg">
<path d="M142.35 0C140.455 0 138.391 0.970588 136.208 2.88235C135.173 3.78824 134.279 4.75882 133.608 5.53529C133.608 5.53529 133.608 5.53529 133.614 5.54118V5.53529C133.614 5.53529 134.673 6.68824 135.844 7.92353C136.473 7.17647 137.379 6.15882 138.42 5.24118C140.361 3.54118 141.626 3.18235 142.35 3.18235C145.073 3.18235 147.285 5.34118 147.285 7.99412C147.285 10.6294 145.067 12.7882 142.35 12.8059C142.226 12.8059 142.067 12.7882 141.867 12.7471C142.661 13.0882 143.514 13.3353 144.326 13.3353C149.314 13.3353 150.291 10.0824 150.355 9.84706C150.503 9.25294 150.579 8.62941 150.579 7.98824C150.579 3.58824 146.885 0 142.35 0Z" fill="url(#paint0_linear_1810_356)"/>
<path d="M124.926 15.9999C126.82 15.9999 128.885 15.0293 131.067 13.1175C132.102 12.2116 132.996 11.241 133.667 10.4646C133.667 10.4646 133.667 10.4646 133.661 10.4587V10.4646C133.661 10.4646 132.602 9.31163 131.432 8.07634C130.802 8.8234 129.896 9.84104 128.855 10.7587C126.914 12.4587 125.649 12.8175 124.926 12.8175C122.202 12.8116 119.99 10.6528 119.99 7.99987C119.99 5.36457 122.208 3.20575 124.926 3.1881C125.049 3.1881 125.208 3.20575 125.408 3.24693C124.614 2.90575 123.761 2.65869 122.949 2.65869C117.961 2.65869 116.99 5.91163 116.92 6.14104C116.773 6.74104 116.696 7.35869 116.696 7.99987C116.696 12.4116 120.39 15.9999 124.926 15.9999Z" fill="url(#paint1_linear_1810_356)"/>
<path d="M144.314 13.2647C141.761 13.2 139.108 11.1882 138.567 10.6882C137.167 9.39412 133.938 5.89412 133.685 5.61765C131.32 2.96471 128.114 0 124.926 0H124.92H124.914C121.043 0.0176471 117.791 2.64118 116.92 6.14118C116.985 5.91176 118.261 2.59412 122.943 2.71176C125.496 2.77647 128.161 4.81765 128.708 5.31765C130.108 6.61176 133.338 10.1118 133.591 10.3882C135.955 13.0353 139.161 16 142.349 16H142.355H142.361C146.232 15.9824 149.491 13.3588 150.355 9.85882C150.285 10.0882 149.002 13.3765 144.314 13.2647Z" fill="#29ABE2"/>
<path d="M3.77814 11.24V4.75H2.58814C2.45814 5.43 1.79814 5.96 0.848145 5.97V6.9H2.40814V11.24H3.77814Z" fill="white"/>
<path d="M8.75697 8C8.75697 7.32 8.85697 6.74 9.10697 6.35C9.30697 6.03 9.61697 5.82 10.087 5.82C10.567 5.82 10.857 6.03 11.057 6.35C11.317 6.74 11.417 7.32 11.417 8C11.417 8.68 11.317 9.26 11.057 9.65C10.857 9.97 10.567 10.18 10.087 10.18C9.61697 10.18 9.30697 9.97 9.10697 9.65C8.85697 9.26 8.75697 8.68 8.75697 8ZM7.37697 8C7.37697 8.83 7.50697 9.64 7.94697 10.31C8.37697 10.95 9.07697 11.4 10.087 11.4C11.097 11.4 11.797 10.95 12.217 10.31C12.657 9.64 12.797 8.83 12.797 8C12.797 7.17 12.657 6.36 12.217 5.69C11.797 5.05 11.097 4.6 10.087 4.6C9.07697 4.6 8.37697 5.05 7.94697 5.69C7.50697 6.36 7.37697 7.17 7.37697 8Z" fill="white"/>
<path d="M17.5656 8C17.5656 7.32 17.6656 6.74 17.9156 6.35C18.1156 6.03 18.4256 5.82 18.8956 5.82C19.3756 5.82 19.6656 6.03 19.8656 6.35C20.1256 6.74 20.2256 7.32 20.2256 8C20.2256 8.68 20.1256 9.26 19.8656 9.65C19.6656 9.97 19.3756 10.18 18.8956 10.18C18.4256 10.18 18.1156 9.97 17.9156 9.65C17.6656 9.26 17.5656 8.68 17.5656 8ZM16.1856 8C16.1856 8.83 16.3156 9.64 16.7556 10.31C17.1856 10.95 17.8856 11.4 18.8956 11.4C19.9056 11.4 20.6056 10.95 21.0256 10.31C21.4656 9.64 21.6056 8.83 21.6056 8C21.6056 7.17 21.4656 6.36 21.0256 5.69C20.6056 5.05 19.9056 4.6 18.8956 4.6C17.8856 4.6 17.1856 5.05 16.7556 5.69C16.3156 6.36 16.1856 7.17 16.1856 8Z" fill="white"/>
<path d="M25.8242 6.28C25.8242 5.87 26.1142 5.59 26.4842 5.59C26.8642 5.59 27.1442 5.87 27.1442 6.28C27.1442 6.69 26.8642 6.98 26.4842 6.98C26.1142 6.98 25.8242 6.7 25.8242 6.28ZM24.8242 6.28C24.8242 7.19 25.5742 7.91 26.4842 7.91C27.3842 7.91 28.1542 7.21 28.1542 6.28C28.1542 5.36 27.3842 4.64 26.4842 4.64C25.5842 4.64 24.8242 5.36 24.8242 6.28ZM30.1942 9.72C30.1942 9.31 30.4842 9.03 30.8542 9.03C31.2342 9.03 31.5142 9.31 31.5142 9.72C31.5142 10.13 31.2342 10.42 30.8542 10.42C30.4842 10.42 30.1942 10.14 30.1942 9.72ZM29.1942 9.72C29.1942 10.63 29.9442 11.35 30.8542 11.35C31.7542 11.35 32.5242 10.65 32.5242 9.72C32.5242 8.8 31.7542 8.08 30.8542 8.08C29.9542 8.08 29.1942 8.8 29.1942 9.72ZM26.9642 11.24L31.5442 4.75H30.3842L25.8042 11.24H26.9642Z" fill="white"/>
<path d="M42.0189 7.69C42.0189 6.09 43.1389 5.33 44.2289 5.33C45.3289 5.33 46.4489 6.09 46.4489 7.69C46.4489 9.29 45.3289 10.05 44.2289 10.05C43.1389 10.05 42.0189 9.29 42.0189 7.69ZM40.5889 7.7C40.5889 9.98 42.3089 11.39 44.2289 11.39C46.1589 11.39 47.8789 9.98 47.8789 7.7C47.8789 5.41 46.1589 4 44.2289 4C42.3089 4 40.5889 5.41 40.5889 7.7Z" fill="white"/>
<path d="M57.1644 11.24C57.4405 11.24 57.6644 11.0161 57.6644 10.74V4.65C57.6644 4.37386 57.4405 4.15 57.1644 4.15H56.7844C56.5083 4.15 56.2844 4.37386 56.2844 4.65V8.84L53.4814 4.38378C53.3899 4.23829 53.2301 4.15 53.0582 4.15H52.1144C51.8383 4.15 51.6144 4.37386 51.6144 4.65V10.74C51.6144 11.0161 51.8383 11.24 52.1144 11.24H52.4944C52.7705 11.24 52.9944 11.0161 52.9944 10.74V6.21L56.0669 11.0096C56.1588 11.1531 56.3175 11.24 56.488 11.24H57.1644Z" fill="white"/>
<path d="M64.0192 8.86C64.2954 8.86 64.5192 8.63614 64.5192 8.36V8.18C64.5192 7.90386 64.2954 7.68 64.0192 7.68H62.1192C61.8431 7.68 61.6192 7.90386 61.6192 8.18V8.36C61.6192 8.63614 61.8431 8.86 62.1192 8.86H64.0192Z" fill="white"/>
<path d="M71.6799 11.39C73.4014 11.39 74.3969 10.4022 74.8091 9.42997C74.913 9.18481 74.7598 8.91953 74.505 8.84247L74.1549 8.73663C73.8881 8.65597 73.6113 8.81356 73.4724 9.05521C73.1754 9.57184 72.6113 10.04 71.6799 10.04C70.5399 10.04 69.4799 9.21 69.4799 7.7C69.4799 6.09 70.5999 5.33 71.6599 5.33C72.593 5.33 73.1348 5.76171 73.4162 6.26702C73.5563 6.51867 73.8418 6.68686 74.1165 6.60022L74.4638 6.49068C74.7148 6.41151 74.8653 6.14911 74.7649 5.90583C74.3539 4.91079 73.3674 4 71.6599 4C69.7599 4 68.0499 5.44 68.0499 7.7C68.0499 9.96 69.6999 11.39 71.6799 11.39Z" fill="white"/>
<path d="M83.8885 11.24C84.1646 11.24 84.3885 11.0161 84.3885 10.74V4.65C84.3885 4.37386 84.1646 4.15 83.8885 4.15H83.4985C83.2223 4.15 82.9985 4.37386 82.9985 4.65V7H79.9085V4.65C79.9085 4.37386 79.6846 4.15 79.4085 4.15H79.0285C78.7523 4.15 78.5285 4.37386 78.5285 4.65V10.74C78.5285 11.0161 78.7523 11.24 79.0285 11.24H79.4085C79.6846 11.24 79.9085 11.0161 79.9085 10.74V8.3H82.9985V10.74C82.9985 11.0161 83.2223 11.24 83.4985 11.24H83.8885Z" fill="white"/>
<path d="M93.2082 10.9111C93.2801 11.1086 93.4679 11.24 93.678 11.24H94.1026C94.4527 11.24 94.6944 10.8893 94.5698 10.5621L92.2506 4.47206C92.1768 4.27815 91.9909 4.15 91.7834 4.15H90.8717C90.6647 4.15 90.479 4.2776 90.4049 4.47091L88.0685 10.5609C87.9429 10.8883 88.1846 11.24 88.5353 11.24H88.918C89.1281 11.24 89.3159 11.1086 89.3878 10.9111L89.858 9.62H92.738L93.2082 10.9111ZM91.298 5.68L92.278 8.36H90.318L91.298 5.68Z" fill="white"/>
<path d="M99.155 11.24C99.4312 11.24 99.655 11.0161 99.655 10.74V4.65C99.655 4.37386 99.4312 4.15 99.155 4.15H98.755C98.4789 4.15 98.255 4.37386 98.255 4.65V10.74C98.255 11.0161 98.4789 11.24 98.755 11.24H99.155Z" fill="white"/>
<path d="M109.362 11.24C109.638 11.24 109.862 11.0161 109.862 10.74V4.65C109.862 4.37386 109.638 4.15 109.362 4.15H108.982C108.706 4.15 108.482 4.37386 108.482 4.65V8.84L105.679 4.38378C105.587 4.23829 105.427 4.15 105.255 4.15H104.312C104.036 4.15 103.812 4.37386 103.812 4.65V10.74C103.812 11.0161 104.036 11.24 104.312 11.24H104.692C104.968 11.24 105.192 11.0161 105.192 10.74V6.21L108.264 11.0096C108.356 11.1531 108.515 11.24 108.685 11.24H109.362Z" fill="white"/>
<path d="M158.309 11.24C158.585 11.24 158.809 11.0161 158.809 10.74V4.65C158.809 4.37386 158.585 4.15 158.309 4.15H157.909C157.633 4.15 157.409 4.37386 157.409 4.65V10.74C157.409 11.0161 157.633 11.24 157.909 11.24H158.309Z" fill="white"/>
<path d="M168.515 11.24C168.791 11.24 169.015 11.0161 169.015 10.74V4.65C169.015 4.37386 168.791 4.15 168.515 4.15H168.135C167.859 4.15 167.635 4.37386 167.635 4.65V8.84L164.832 4.38378C164.741 4.23829 164.581 4.15 164.409 4.15H163.465C163.189 4.15 162.965 4.37386 162.965 4.65V10.74C162.965 11.0161 163.189 11.24 163.465 11.24H163.845C164.121 11.24 164.345 11.0161 164.345 10.74V6.21L167.418 11.0096C167.51 11.1531 167.668 11.24 167.839 11.24H168.515Z" fill="white"/>
<path d="M177.88 5.46C178.156 5.46 178.38 5.23614 178.38 4.96V4.65C178.38 4.37386 178.156 4.15 177.88 4.15H173.01C172.734 4.15 172.51 4.37386 172.51 4.65V4.96C172.51 5.23614 172.734 5.46 173.01 5.46H174.75V10.74C174.75 11.0161 174.974 11.24 175.25 11.24H175.64C175.916 11.24 176.14 11.0161 176.14 10.74V5.46H177.88Z" fill="white"/>
<path d="M185.812 11.24C186.088 11.24 186.312 11.0161 186.312 10.74V10.44C186.312 10.1639 186.088 9.94 185.812 9.94H183.252V8.3H185.522C185.798 8.3 186.022 8.07614 186.022 7.8V7.57C186.022 7.29386 185.798 7.07 185.522 7.07H183.252V5.45H185.812C186.088 5.45 186.312 5.22614 186.312 4.95V4.65C186.312 4.37386 186.088 4.15 185.812 4.15H182.372C182.095 4.15 181.872 4.37386 181.872 4.65V10.74C181.872 11.0161 182.095 11.24 182.372 11.24H185.812Z" fill="white"/>
<path d="M193.524 10.9669C193.609 11.1345 193.781 11.24 193.969 11.24H194.376C194.752 11.24 194.993 10.8408 194.819 10.5079L193.683 8.34C194.613 8.07 195.193 7.32 195.193 6.33C195.193 5.1 194.313 4.15 192.933 4.15H190.663C190.386 4.15 190.163 4.37386 190.163 4.65V10.74C190.163 11.0161 190.386 11.24 190.663 11.24H191.053C191.329 11.24 191.553 11.0161 191.553 10.74V8.51H192.273L193.524 10.9669ZM191.553 7.32V5.35H192.673C193.373 5.35 193.783 5.74 193.783 6.34C193.783 6.92 193.373 7.32 192.673 7.32H191.553Z" fill="white"/>
<path d="M204.511 11.24C204.788 11.24 205.011 11.0161 205.011 10.74V4.65C205.011 4.37386 204.788 4.15 204.511 4.15H204.131C203.855 4.15 203.631 4.37386 203.631 4.65V8.84L200.828 4.38378C200.737 4.23829 200.577 4.15 200.405 4.15H199.461C199.185 4.15 198.961 4.37386 198.961 4.65V10.74C198.961 11.0161 199.185 11.24 199.461 11.24H199.841C200.118 11.24 200.341 11.0161 200.341 10.74V6.21L203.414 11.0096C203.506 11.1531 203.665 11.24 203.835 11.24H204.511Z" fill="white"/>
<path d="M213.116 11.24C213.392 11.24 213.616 11.0161 213.616 10.74V10.44C213.616 10.1639 213.392 9.94 213.116 9.94H210.556V8.3H212.826C213.102 8.3 213.326 8.07614 213.326 7.8V7.57C213.326 7.29386 213.102 7.07 212.826 7.07H210.556V5.45H213.116C213.392 5.45 213.616 5.22614 213.616 4.95V4.65C213.616 4.37386 213.392 4.15 213.116 4.15H209.676C209.4 4.15 209.176 4.37386 209.176 4.65V10.74C209.176 11.0161 209.4 11.24 209.676 11.24H213.116Z" fill="white"/>
<path d="M222.167 5.46C222.443 5.46 222.667 5.23614 222.667 4.96V4.65C222.667 4.37386 222.443 4.15 222.167 4.15H217.297C217.021 4.15 216.797 4.37386 216.797 4.65V4.96C216.797 5.23614 217.021 5.46 217.297 5.46H219.037V10.74C219.037 11.0161 219.261 11.24 219.537 11.24H219.927C220.203 11.24 220.427 11.0161 220.427 10.74V5.46H222.167Z" fill="white"/>
<path d="M233.968 11.39C235.69 11.39 236.685 10.4022 237.098 9.42997C237.201 9.18481 237.048 8.91953 236.793 8.84247L236.443 8.73663C236.176 8.65597 235.9 8.81356 235.761 9.05521C235.464 9.57184 234.9 10.04 233.968 10.04C232.828 10.04 231.768 9.21 231.768 7.7C231.768 6.09 232.888 5.33 233.948 5.33C234.881 5.33 235.423 5.76171 235.705 6.26702C235.845 6.51867 236.13 6.68686 236.405 6.60022L236.752 6.49068C237.003 6.41151 237.154 6.14911 237.053 5.90583C236.642 4.91079 235.656 4 233.948 4C232.048 4 230.338 5.44 230.338 7.7C230.338 9.96 231.988 11.39 233.968 11.39Z" fill="white"/>
<path d="M241.827 7.69C241.827 6.09 242.947 5.33 244.037 5.33C245.137 5.33 246.257 6.09 246.257 7.69C246.257 9.29 245.137 10.05 244.037 10.05C242.947 10.05 241.827 9.29 241.827 7.69ZM240.397 7.7C240.397 9.98 242.117 11.39 244.037 11.39C245.967 11.39 247.687 9.98 247.687 7.7C247.687 5.41 245.967 4 244.037 4C242.117 4 240.397 5.41 240.397 7.7Z" fill="white"/>
<path d="M258.832 11.24C259.109 11.24 259.332 11.0161 259.332 10.74V4.65C259.332 4.37386 259.109 4.15 258.832 4.15H257.789C257.585 4.15 257.402 4.2733 257.326 4.46181L255.372 9.27L253.37 4.45795C253.293 4.27149 253.111 4.15 252.909 4.15H251.922C251.646 4.15 251.422 4.37386 251.422 4.65V10.74C251.422 11.0161 251.646 11.24 251.922 11.24H252.242C252.519 11.24 252.742 11.0161 252.742 10.74V6.31L254.655 10.9312C254.732 11.1181 254.914 11.24 255.117 11.24H255.597C255.8 11.24 255.983 11.1175 256.06 10.9299L257.972 6.27V10.74C257.972 11.0161 258.196 11.24 258.472 11.24H258.832Z" fill="white"/>
<path d="M264.883 7.38V5.35H265.973C266.663 5.35 267.083 5.74 267.083 6.37C267.083 6.98 266.663 7.38 265.973 7.38H264.883ZM266.143 8.57C267.543 8.57 268.473 7.65 268.473 6.36C268.473 5.08 267.543 4.15 266.143 4.15H263.993C263.717 4.15 263.493 4.37386 263.493 4.65V10.74C263.493 11.0161 263.717 11.24 263.993 11.24H264.373C264.649 11.24 264.873 11.0161 264.873 10.74V8.57H266.143Z" fill="white"/>
<path d="M274.707 11.4C276.227 11.4 277.437 10.47 277.437 8.73V4.65C277.437 4.37386 277.214 4.15 276.937 4.15H276.557C276.281 4.15 276.057 4.37386 276.057 4.65V8.63C276.057 9.56 275.547 10.05 274.707 10.05C273.887 10.05 273.367 9.56 273.367 8.63V4.65C273.367 4.37386 273.144 4.15 272.867 4.15H272.487C272.211 4.15 271.987 4.37386 271.987 4.65V8.73C271.987 10.47 273.197 11.4 274.707 11.4Z" fill="white"/>
<path d="M286.24 5.46C286.516 5.46 286.74 5.23614 286.74 4.96V4.65C286.74 4.37386 286.516 4.15 286.24 4.15H281.37C281.093 4.15 280.87 4.37386 280.87 4.65V4.96C280.87 5.23614 281.093 5.46 281.37 5.46H283.11V10.74C283.11 11.0161 283.333 11.24 283.61 11.24H284C284.276 11.24 284.5 11.0161 284.5 10.74V5.46H286.24Z" fill="white"/>
<path d="M294.171 11.24C294.447 11.24 294.671 11.0161 294.671 10.74V10.44C294.671 10.1639 294.447 9.94 294.171 9.94H291.611V8.3H293.881C294.157 8.3 294.381 8.07614 294.381 7.8V7.57C294.381 7.29386 294.157 7.07 293.881 7.07H291.611V5.45H294.171C294.447 5.45 294.671 5.22614 294.671 4.95V4.65C294.671 4.37386 294.447 4.15 294.171 4.15H290.731C290.455 4.15 290.231 4.37386 290.231 4.65V10.74C290.231 11.0161 290.455 11.24 290.731 11.24H294.171Z" fill="white"/>
<path d="M301.883 10.9669C301.968 11.1345 302.14 11.24 302.328 11.24H302.735C303.111 11.24 303.353 10.8408 303.178 10.5079L302.042 8.34C302.972 8.07 303.552 7.32 303.552 6.33C303.552 5.1 302.672 4.15 301.292 4.15H299.022C298.746 4.15 298.522 4.37386 298.522 4.65V10.74C298.522 11.0161 298.746 11.24 299.022 11.24H299.412C299.688 11.24 299.912 11.0161 299.912 10.74V8.51H300.632L301.883 10.9669ZM299.912 7.32V5.35H301.032C301.732 5.35 302.142 5.74 302.142 6.34C302.142 6.92 301.732 7.32 301.032 7.32H299.912Z" fill="white"/>
<defs>
<linearGradient id="paint0_linear_1810_356" x1="138.066" y1="1.05498" x2="149.255" y2="12.6414" gradientUnits="userSpaceOnUse">
<stop offset="0.21" stop-color="#F15A24"/>
<stop offset="0.6841" stop-color="#FBB03B"/>
</linearGradient>
<linearGradient id="paint1_linear_1810_356" x1="129.21" y1="14.9449" x2="118.021" y2="3.3585" gradientUnits="userSpaceOnUse">
<stop offset="0.21" stop-color="#ED1E79"/>
<stop offset="0.8929" stop-color="#522785"/>
</linearGradient>
</defs>
</svg>
